<svg width="128" height="128" viewBox="0 0 128 128" fill="none" xmlns="http://www.w3.org/2000/svg">
<path d="M49.4998 100.62C48.0898 101.45 43.2398 106.01 42.3298 107.45C41.3698 108.96 41.2598 110.82 41.2998 112.56C41.4398 118.03 40.5598 125.58 35.1698 124.66C31.0598 123.96 33.3698 116.03 33.9698 113.34C34.8398 109.4 31.9698 110.85 31.2098 111.25C28.6698 112.57 22.0598 118.59 19.6698 112.09C17.4698 106.09 25.7998 105.48 28.0798 104.95C30.4798 104.39 30.3998 102.34 28.9698 101.35C26.2398 99.4703 19.9998 96.8303 22.6198 91.9103C24.8698 87.6903 31.2598 91.9303 32.8898 94.6003C33.7198 95.9603 34.3298 97.9903 35.6398 98.9503C36.9398 99.9003 38.5198 99.1703 39.7998 98.5203C40.7498 98.0403 41.6498 97.4703 42.5598 96.9203C44.2898 95.4503 45.3898 93.3703 45.3898 90.0003C45.3898 86.9603 41.8598 83.1703 40.3898 80.7503C37.8898 76.6303 38.5198 73.2203 37.4998 71.6903C36.6098 70.3503 34.6998 70.4003 32.7298 69.8303C30.2198 69.2703 28.8298 69.4303 26.7298 71.1303C25.1798 72.3903 23.6598 74.1303 22.6598 75.8903C21.5798 77.8103 21.2598 80.0703 20.1198 81.9803C18.5798 84.5403 15.6398 86.5403 12.6998 85.1703C9.99977 83.9103 9.64977 80.8903 11.3198 78.5903C12.7898 76.5603 15.0298 75.6503 16.2298 73.3303C17.2398 71.3803 15.6498 70.5603 13.4298 71.1403C11.0298 71.7603 3.25977 74.1803 3.25977 68.1003C3.25977 62.1103 10.3298 63.5803 13.3698 64.1003C15.6498 64.4903 15.7298 62.6003 14.9798 61.6303C13.1198 59.2303 7.41977 53.1303 10.8498 50.8203C17.3898 46.4203 20.5098 56.8203 20.9798 59.5403C21.5998 63.1103 26.9198 63.5803 30.1298 61.8203C33.2798 59.8803 34.5398 56.4003 33.2998 52.7503C31.9998 49.0003 27.9598 44.9303 24.4298 44.1403C14.1098 41.8503 12.8898 31.6203 13.1998 22.0803C13.3698 16.9903 15.8498 6.20032 18.1698 4.64032C22.4798 1.73032 30.9398 4.01032 36.5598 6.08032C44.2398 8.90032 50.8098 13.5003 51.9098 24.1503C52.3498 28.4103 49.4498 33.2803 50.5598 37.4703C51.5798 41.2903 54.6698 47.0203 59.3498 42.6803C60.6598 41.0103 64.1098 36.8003 64.5498 34.6303C64.9498 32.6403 64.4598 29.2403 63.6698 27.4603C62.1898 24.1203 61.9098 17.3103 65.5798 16.9203C71.7398 16.2603 69.2798 26.7203 69.5598 28.2403C69.7698 29.3403 71.3698 30.7403 73.0698 29.5303C75.9198 27.5103 78.3798 21.0903 81.9098 24.6003C86.6098 29.2603 78.8798 33.1303 77.3498 34.1803C75.1798 35.6703 75.7398 37.8003 77.4798 37.9703C79.7398 38.1803 87.7598 37.4403 86.0598 43.7003C84.5698 49.1803 78.9698 45.4203 75.9098 43.7703C72.3798 41.8603 70.6198 41.2403 67.1198 44.2803C66.3898 44.9103 64.7098 48.0603 63.9798 49.1403C62.9498 51.1503 62.9698 53.2503 65.1098 54.1903C66.9698 55.0103 69.0698 56.4803 70.6098 57.9503C73.5198 60.7203 74.8798 64.0103 75.7298 66.0903C76.8498 68.8403 78.5498 69.8203 81.0898 69.7303C83.0598 69.5803 85.9498 68.1803 87.5698 66.8803C89.4398 65.3703 90.3598 63.1603 90.8398 60.8703C91.4698 57.8803 91.5998 56.7203 91.9998 53.6903C92.2398 51.8803 92.1698 46.8403 96.2198 47.3403C101.51 47.9803 98.3698 56.6703 97.8898 58.4303C97.5698 59.5803 98.4498 60.4803 100.27 60.1503C102.06 59.8303 108.37 54.1603 110.43 60.1103C112.22 65.3103 104.6 65.9203 101.79 66.9703C100.27 67.5403 99.6398 69.2603 102.34 70.3303C104.97 71.3703 112.4 75.3603 108.06 79.6103C103.53 84.0403 97.9898 75.5903 95.5098 73.1203C92.4898 70.1103 83.5598 77.3103 82.3698 80.5103C81.3398 85.1103 83.5198 89.1603 85.7498 93.3903C88.8798 99.3203 91.0398 103.75 96.4698 106.87C101.73 109.9 105.45 111.16 111.04 109.5C116.01 108.02 118.05 103.38 117.39 98.8403C116.96 95.8803 114.02 92.2603 108.86 93.9103C106.2 94.7603 103.63 96.4903 102.59 95.3103C100.92 93.4203 106.72 89.2303 111.09 88.3403C117.47 87.0403 123.95 90.8803 124.66 97.7703C125.61 106.98 119.77 116.16 111.95 118.63C100.78 122.16 90.7498 119.67 81.8898 116.27C76.3198 114.13 67.4198 109.79 62.7098 106.56C60.0698 104.71 53.3898 98.6503 49.4998 100.62Z" fill="white"/>
<path d="M24.2803 34.5303C26.6275 34.5303 28.5303 32.6275 28.5303 30.2803C28.5303 27.9331 26.6275 26.0303 24.2803 26.0303C21.9331 26.0303 20.0303 27.9331 20.0303 30.2803C20.0303 32.6275 21.9331 34.5303 24.2803 34.5303Z" fill="#2F2F2F"/>
<path d="M41.2803 26.8799C43.6275 26.8799 45.5303 24.9771 45.5303 22.6299C45.5303 20.2827 43.6275 18.3799 41.2803 18.3799C38.9331 18.3799 37.0303 20.2827 37.0303 22.6299C37.0303 24.9771 38.9331 26.8799 41.2803 26.8799Z" fill="#2F2F2F"/>
</svg>
